#!OML:ASF F:\VICON\USERDATA\INSTALL\rory3\rory3.ASF
:FULLY-SPECIFIED
:DEGREES
1820
root 3.47742 17.7604 10.5752 182.202 -31.2359 175.631
lowerback 12.0729 2.62898 -2.3628
upperback 1.92406 3.05015 0.160305
thorax -4.878 1.48362 1.01087
lowerneck -14.7281 7.95004 -8.22186
upperneck 44.1883 9.22156 5.06846
head 18.3356 1.73319 5.16306
rclavicle 4.01545e-014 5.1684e-015
rhumerus -36.6702 -14.7992 -77.1942
rradius 37.3005
rwrist 6.04005
rhand -14.4983 14.0352
rfingers 7.12502
rthumb 11.6486 -15.621
lclavicle 4.01545e-014 5.1684e-015
lhumerus -34.4135 8.15643 74.9426
lradius 43.6347
lwrist 3.72086
lhand -22.6629 26.0345
lfingers 7.12502
lthumb 3.76862 55.9809
rfemur -10.5807 -7.89725 15.1721
rtibia 48.4675
rfoot -23.4511 5.5433
rtoes -16.1239
lfemur -7.86109 -4.22161 -22.5455
ltibia 24.6487
lfoot -13.656 -10.3831
ltoes -4.8364
1821
root 3.44582 17.7454 10.6158 182.138 -31.0402 175.807
lowerback 11.9573 2.6457 -2.22096
upperback 1.9232 3.09623 0.175791
thorax -4.81001 1.50453 0.944733
lowerneck -14.7074 7.9214 -8.28414
upperneck 44.1331 9.19101 5.08223
head 18.2935 1.71821 5.1693
rclavicle 6.16232e-015 2.18663e-014
rhumerus -36.5542 -14.8297 -77.3382
rradius 37.1097
rwrist 6.13028
rhand -15.0088 14.0401
rfingers 7.12502
rthumb 11.1563 -15.6434
lclavicle 6.16232e-015 2.18663e-014
lhumerus -34.3081 8.40502 74.8016
lradius 43.5412
lwrist 3.8593
lhand -22.6304 25.9976
lfingers 7.12502
lthumb 3.80006 55.9434
rfemur -10.4963 -8.69015 16.1589
rtibia 48.4183
rfoot -23.5928 5.91324
rtoes -18.8111
lfemur -8.22029 -4.01701 -22.5279
ltibia 25.2113
lfoot -14.0298 -10.4035
ltoes -5.63901
1822
root 3.41615 17.7318 10.6558 182.136 -30.8331 175.904
lowerback 11.8145 2.63415 -2.16845
upperback 1.92958 3.09272 0.176041
thorax -4.72143 1.50213 0.922303
lowerneck -14.7255 7.92749 -8.26389
upperneck 44.0944 9.23055 5.00228
head 18.2805 1.72797 5.13286
rclavicle -6.13251e-014 1.23246e-014
rhumerus -36.4469 -14.8399 -77.4953
rradius 37.4144
rwrist 5.09218
rhand -14.6252 13.5121
rfingers 7.12502
rthumb 11.5262 -16.151
lclavicle -6.13251e-014 1.23246e-014
lhumerus -34.2745 8.66981 74.6139
lradius 43.5005
lwrist 4.0384
lhand -22.6276 25.8965
lfingers 7.12502
lthumb 3.80277 55.8423
rfemur -10.3793 -9.38462 17.0829
rtibia 48.2765
rfoot -23.0861 6.18982
rtoes -18.5095
lfemur -8.58489 -3.83116 -22.5654
ltibia 25.6958
lfoot -14.1365 -10.5239
ltoes -5.7119
1823
root 3.38772 17.7218 10.6951 182.092 -30.5946 176.032
lowerback 11.7628 2.62946 -2.06446
upperback 1.89808 3.10264 0.169025
thorax -4.72024 1.5066 0.856424
lowerneck -14.7689 7.96433 -8.34328
upperneck 44.1442 9.28656 5.05818
head 18.3041 1.73599 5.18559
rclavicle 5.82439e-014 -2.90226e-014
rhumerus -36.4986 -14.7058 -77.6911
rradius 37.6395
rwrist 4.56852
rhand -14.7298 13.344
rfingers 7.12502
rthumb 11.4254 -16.3247
lclavicle 5.82439e-014 -2.90226e-014
lhumerus -34.2852 8.90157 74.422
lradius 43.4207
lwrist 4.11442
lhand -22.6463 25.9865
lfingers 7.12502
lthumb 3.78467 55.9326
rfemur -10.1662 -9.90613 18.026
rtibia 47.9947
rfoot -21.9853 6.21527
rtoes -17.2081
lfemur -8.89063 -3.77482 -22.5625
ltibia 26.125
lfoot -14.1149 -10.6323
ltoes -4.73079
1824
root 3.35795 17.7155 10.7298 182.065 -30.3228 176.074
lowerback 11.6834 2.66094 -1.99736
upperback 1.87377 3.15338 0.108679
thorax -4.69639 1.53109 0.750543
lowerneck -14.7269 7.98658 -8.4236
upperneck 44.138 9.29527 5.15045
head 18.2708 1.73846 5.23836
rclavicle 2.0276e-014 -3.57812e-015
rhumerus -36.5535 -14.7777 -77.8384
rradius 37.6988
rwrist 4.55263
rhand -14.6878 13.2796
rfingers 7.12502
rthumb 11.4659 -16.3868
lclavicle 2.0276e-014 -3.57812e-015
lhumerus -34.2421 9.14792 74.2054
lradius 43.2344
lwrist 3.97124
lhand -22.6173 25.8976
lfingers 7.12502
lthumb 3.81264 55.8433
rfemur -9.92408 -10.2629 18.8308
rtibia 47.5347
rfoot -21.1281 5.89541
rtoes -14.647
lfemur -9.13905 -3.65094 -22.6451
ltibia 26.5434
lfoot -14.2618 -10.6959
ltoes -4.84551
1825
root 3.32771 17.702 10.7648 182.102 -30.0482 175.922
lowerback 11.632 2.71897 -2.01486
upperback 1.87747 3.22324 -0.00069702
thorax -4.66082 1.56467 0.637703
lowerneck -14.6828 7.97786 -8.51621
upperneck 44.09 9.29977 5.1685
head 18.22 1.73235 5.25548
rclavicle 6.44062e-014 -3.57812e-015
rhumerus -36.5941 -14.8949 -77.9393
rradius 37.7318
rwrist 4.60641
rhand -14.7714 13.3051
rfingers 7.12502
rthumb 11.3852 -16.3658
lclavicle 6.44062e-014 -3.57812e-015
lhumerus -34.1936 9.16566 74.1272
lradius 43.1471
lwrist 3.94418
lhand -22.6406 26.055
lfingers 7.12502
lthumb 3.79019 56.001
rfemur -9.56943 -10.5589 19.3796
rtibia 46.8857
rfoot -20.5415 5.2811
rtoes -9.82881
lfemur -9.35398 -3.45452 -22.9149
ltibia 26.9441
lfoot -14.4506 -10.8472
ltoes -5.11536
1826
root 3.29718 17.6809 10.8046 182.15 -29.7465 175.832
lowerback 11.6081 2.76996 -1.89947
upperback 1.84639 3.30049 -0.120573
thorax -4.66861 1.60084 0.436283
lowerneck -14.6531 7.94863 -8.56982
upperneck 44.0521 9.27622 5.14367
head 18.1906 1.71228 5.24354
rclavicle 5.397e-014 5.56597e-015
rhumerus -36.6611 -14.8036 -78.1412
rradius 37.7172
rwrist 4.35586
rhand -15.0269 13.3986
rfingers 7.12502
rthumb 11.1388 -16.2858
lclavicle 5.397e-014 5.56597e-015
lhumerus -34.1753 9.13949 74.051
lradius 43.0673
lwrist 3.88572
lhand -22.526 26.5588
lfingers 7.12502
lthumb 3.90086 56.5028
rfemur -9.12726 -10.8028 19.9608
rtibia 46.0592
rfoot -19.591 4.28491
rtoes -1.956
lfemur -9.60808 -3.20627 -23.1243
ltibia 27.2915
lfoot -14.6197 -11.0235
ltoes -5.11907
1827
root 3.26912 17.6694 10.8423 182.212 -29.5418 175.823
lowerback 11.5117 2.78224 -1.7299
upperback 1.79909 3.3373 -0.229258
thorax -4.64933 1.61726 0.22562
lowerneck -14.4957 7.93813 -8.47793
upperneck 43.9524 9.25858 5.00633
head 18.111 1.70925 5.14312
rclavicle 1.98785e-016 -9.54166e-015
rhumerus -36.7321 -14.7183 -78.3996
rradius 37.6715
rwrist 4.12169
rhand -14.8226 12.972
rfingers 7.12502
rthumb 11.3359 -16.7016
lclavicle 1.98785e-016 -9.54166e-015
lhumerus -34.1692 9.19697 73.9108
lradius 42.9427
lwrist 3.69754
lhand -22.4495 26.4904
lfingers 7.12502
lthumb 3.97467 56.4331
rfemur -8.7327 -10.9743 20.6308
rtibia 45.0816
rfoot -18.9864 1.94606
rtoes 3.92791
lfemur -9.90149 -2.98255 -23.2245
ltibia 27.6034
lfoot -14.8534 -11.2401
ltoes -4.79682
1828
root 3.24015 17.6675 10.877 182.301 -29.3173 175.756
lowerback 11.3737 2.79329 -1.60353
upperback 1.77601 3.36799 -0.322327
thorax -4.58472 1.63095 0.0593062
lowerneck -14.3977 7.95064 -8.51507
upperneck 43.9145 9.28833 4.95707
head 18.0607 1.70966 5.12031
rclavicle -6.96243e-014 1.74931e-014
rhumerus -36.7571 -14.7808 -78.5454
rradius 37.6093
rwrist 4.25761
rhand -14.6547 12.475
rfingers 7.12502
rthumb 11.4978 -17.1897
lclavicle -6.96243e-014 1.74931e-014
lhumerus -34.1298 9.24101 73.824
lradius 42.7157
lwrist 3.53449
lhand -22.5809 25.9461
lfingers 7.12502
lthumb 3.84779 55.8912
rfemur -8.35322 -10.9979 21.1737
rtibia 43.9978
rfoot -19.8914 -2.59039
rtoes 0.503077
lfemur -10.1612 -2.76621 -23.3606
ltibia 27.8675
lfoot -14.9586 -11.6032
ltoes -3.65554
1829
root 3.20687 17.6617 10.914 182.292 -28.9616 175.778
lowerback 11.3044 2.81648 -1.35714
upperback 1.75319 3.42963 -0.369933
thorax -4.55359 1.65822 -0.134628
lowerneck -14.3551 7.98819 -8.69152
upperneck 43.9206 9.37586 4.99073
head 18.0262 1.71725 5.17386
rclavicle -3.70733e-014 1.23246e-014
rhumerus -36.7881 -14.7708 -78.6325
rradius 37.5192
rwrist 4.39988
rhand -15.2213 12.8658
rfingers 7.12502
rthumb 10.9513 -16.8286
lclavicle -3.70733e-014 1.23246e-014
lhumerus -34.1169 9.25013 73.8299
lradius 42.4497
lwrist 3.48415
lhand -22.5708 25.4195
lfingers 7.12502
lthumb 3.85754 55.3643
rfemur -7.93104 -10.7405 21.6876
rtibia 42.8733
rfoot -21.4782 -7.76909
rtoes -6.18247
lfemur -10.3033 -2.56774 -23.4301
ltibia 28.0531
lfoot -15.0531 -11.8981
ltoes -2.6579
1830
root 3.17319 17.6502 10.9543 182.336 -28.5735 175.717
lowerback 11.2615 2.86037 -1.12951
upperback 1.71401 3.51365 -0.458291
thorax -4.55226 1.69664 -0.365476
lowerneck -14.3117 8.0177 -8.77225
upperneck 43.9431 9.44825 4.94476
head 18.0191 1.71943 5.17353
rclavicle -3.45885e-014 -1.19271e-015
rhumerus -36.7979 -14.7727 -78.7346
rradius 37.3502
rwrist 4.37979
rhand -15.8292 13.4374
rfingers 7.12502
rthumb 10.365 -16.2872
lclavicle -3.45885e-014 -1.19271e-015
lhumerus -34.087 9.24531 73.8487
lradius 42.2039
lwrist 3.35998
lhand -22.4241 25.059
lfingers 7.12502
lthumb 3.99925 55.0012
rfemur -7.6416 -10.2967 22.0307
rtibia 41.795
rfoot -22.3198 -10.6219
rtoes -6.38582
lfemur -10.4271 -2.37475 -23.5858
ltibia 28.2165
lfoot -15.4939 -11.9988
ltoes -3.50911
1831
root 3.1386 17.6375 10.9947 182.447 -28.2483 175.513
lowerback 11.2143 2.9094 -0.955197
upperback 1.70913 3.59397 -0.584227
thorax -4.51256 1.73281 -0.603384
lowerneck -14.3405 8.01601 -8.92753
upperneck 43.9997 9.47517 4.98273
head 18.0429 1.70043 5.22521
rclavicle -4.25896e-014 -1.27222e-014
rhumerus -36.6558 -14.7277 -78.8279
rradius 37.0897
rwrist 4.23131
rhand -16.3012 13.6244
rfingers 7.12502
rthumb 9.90956 -16.1224
lclavicle -4.25896e-014 -1.27222e-014
lhumerus -34.0332 9.10374 73.9326
lradius 42.0213
lwrist 3.11742
lhand -22.1767 25.1006
lfingers 7.12502
lthumb 4.23812 55.0382
rfemur -7.39148 -9.92392 22.1211
rtibia 40.8593
rfoot -22.365 -11.0798
rtoes -0.747613
lfemur -10.565 -2.12442 -23.8852
ltibia 28.3972
lfoot -16.1255 -12.124
ltoes -5.04967
1832
root 3.10539 17.6286 11.0365 182.404 -27.9258 175.529
lowerback 11.2561 2.93858 -0.624223
upperback 1.68639 3.67197 -0.607729
thorax -4.53684 1.7664 -0.82727
lowerneck -14.3631 8.05091 -9.10996
upperneck 44.1375 9.56868 4.98117
head 18.1091 1.68457 5.27693
rclavicle 9.53172e-014 -7.15625e-015
rhumerus -36.621 -14.5504 -78.8671
rradius 36.9093
rwrist 4.05896
rhand -16.6908 13.7925
rfingers 7.12502
rthumb 9.53365 -15.9718
lclavicle 9.53172e-014 -7.15625e-015
lhumerus -34.0527 8.97691 74.0645
lradius 41.7926
lwrist 2.87365
lhand -22.1441 25.4509
lfingers 7.12502
lthumb 4.26959 55.3879
rfemur -7.05397 -9.54027 22.3428
rtibia 40.1029
rfoot -22.6008 -11.6211
rtoes 3.78307
lfemur -10.6841 -1.97907 -23.9586
ltibia 28.5923
lfoot -16.5274 -12.3048
ltoes -5.97612
1833
root 3.07281 17.6174 11.0823 182.41 -27.5759 175.467
lowerback 11.2913 2.93857 -0.364492
upperback 1.693 3.70034 -0.645952
thorax -4.52993 1.77574 -1.01785
lowerneck -14.4459 8.12809 -9.21771
upperneck 44.2537 9.77498 4.85362
head 18.1858 1.7105 5.27829
rclavicle 1.85864e-014 -1.23246e-014
rhumerus -36.5726 -14.2809 -78.9602
rradius 36.8167
rwrist 4.05854
rhand -16.7126 13.7357
rfingers 7.12502
rthumb 9.51267 -16.0296
lclavicle 1.85864e-014 -1.23246e-014
lhumerus -33.9885 9.15467 74.1521
lradius 41.4688
lwrist 2.51542
lhand -22.152 25.7256
lfingers 7.12502
lthumb 4.26202 55.6627
rfemur -6.78061 -9.05932 22.4064
rtibia 39.4991
rfoot -23.2662 -13.0322
rtoes 4.29832
lfemur -10.8128 -1.85589 -24.104
ltibia 28.8058
lfoot -16.8539 -12.5868
ltoes -6.45171
